<mxfile host="app.diagrams.net" modified="2023-11-03T08:48:01.624Z" agent="Mozilla/5.0 (Windows NT 10.0; Win64; x64) AppleWebKit/537.36 (KHTML, like Gecko) Chrome/118.0.0.0 Safari/537.36" etag="ZEA3jNCaZAA-fP0ncaOd" version="21.7.5" type="github">
  <diagram name="Page-1" id="c7558073-3199-34d8-9f00-42111426c3f3">
    <mxGraphModel dx="989" dy="521" grid="1" gridSize="10" guides="1" tooltips="1" connect="1" arrows="1" fold="1" page="1" pageScale="1" pageWidth="826" pageHeight="1169" background="none" math="0" shadow="0">
      <root>
        <mxCell id="0" />
        <mxCell id="1" parent="0" />
        <mxCell id="fiwy8MtEHaPNP4IAkZbd-101" value="" style="edgeStyle=orthogonalEdgeStyle;rounded=0;orthogonalLoop=1;jettySize=auto;html=1;" edge="1" parent="1" source="fiwy8MtEHaPNP4IAkZbd-99" target="fiwy8MtEHaPNP4IAkZbd-100">
          <mxGeometry relative="1" as="geometry" />
        </mxCell>
        <mxCell id="fiwy8MtEHaPNP4IAkZbd-99" value="唤醒小卓" style="rounded=1;whiteSpace=wrap;html=1;" vertex="1" parent="1">
          <mxGeometry x="220" y="260" width="120" height="60" as="geometry" />
        </mxCell>
        <mxCell id="fiwy8MtEHaPNP4IAkZbd-100" value="Actions" style="rounded=1;whiteSpace=wrap;html=1;" vertex="1" parent="1">
          <mxGeometry x="413" y="260" width="120" height="60" as="geometry" />
        </mxCell>
        <mxCell id="fiwy8MtEHaPNP4IAkZbd-103" value="" style="strokeWidth=2;html=1;shape=mxgraph.flowchart.annotation_2;align=left;labelPosition=right;pointerEvents=1;" vertex="1" parent="1">
          <mxGeometry x="533" y="240" width="50" height="100" as="geometry" />
        </mxCell>
        <mxCell id="fiwy8MtEHaPNP4IAkZbd-104" value="显示&amp;nbsp;[[回应]]" style="text;html=1;strokeColor=none;fillColor=none;align=center;verticalAlign=middle;whiteSpace=wrap;rounded=0;" vertex="1" parent="1">
          <mxGeometry x="590" y="230" width="90" height="30" as="geometry" />
        </mxCell>
        <mxCell id="fiwy8MtEHaPNP4IAkZbd-105" value="播报 [[回应]]" style="text;html=1;strokeColor=none;fillColor=none;align=center;verticalAlign=middle;whiteSpace=wrap;rounded=0;" vertex="1" parent="1">
          <mxGeometry x="590" y="275" width="90" height="30" as="geometry" />
        </mxCell>
        <mxCell id="fiwy8MtEHaPNP4IAkZbd-106" value="提示指令" style="text;html=1;strokeColor=none;fillColor=none;align=center;verticalAlign=middle;whiteSpace=wrap;rounded=0;" vertex="1" parent="1">
          <mxGeometry x="583" y="320" width="90" height="30" as="geometry" />
        </mxCell>
      </root>
    </mxGraphModel>
  </diagram>
</mxfile>
